<mxfile host="Electron" agent="Mozilla/5.0 (Windows NT 10.0; Win64; x64) AppleWebKit/537.36 (KHTML, like Gecko) draw.io/28.0.6 Chrome/138.0.7204.100 Electron/37.2.3 Safari/537.36" version="28.0.6">
  <diagram name="Página-1" id="a5eYzSP7qZaqpB7z10xn">
    <mxGraphModel dx="983" dy="580" grid="0" gridSize="10" guides="1" tooltips="1" connect="1" arrows="1" fold="1" page="1" pageScale="1" pageWidth="827" pageHeight="1169" math="0" shadow="0">
      <root>
        <mxCell id="0" />
        <mxCell id="1" parent="0" />
        <mxCell id="2W4oQ-HzInhPV2Ujpsob-1" value="Revisión, agenda para toma de videos y elaboración de estadístico" style="shape=table;startSize=30;container=1;collapsible=0;childLayout=tableLayout;fixedRows=1;rowLines=0;fontStyle=0;strokeColor=default;fontSize=14;fontFamily=Times New Roman;" vertex="1" parent="1">
          <mxGeometry x="28" y="30" width="405" height="102.59999999999997" as="geometry" />
        </mxCell>
        <mxCell id="2W4oQ-HzInhPV2Ujpsob-2" value="" style="shape=tableRow;horizontal=0;startSize=0;swimlaneHead=0;swimlaneBody=0;top=0;left=0;bottom=0;right=0;collapsible=0;dropTarget=0;fillColor=none;points=[[0,0.5],[1,0.5]];portConstraint=eastwest;strokeColor=inherit;fontSize=16;fontFamily=Times New Roman;" vertex="1" parent="2W4oQ-HzInhPV2Ujpsob-1">
          <mxGeometry y="30" width="405" height="26" as="geometry" />
        </mxCell>
        <mxCell id="2W4oQ-HzInhPV2Ujpsob-3" value="&lt;font style=&quot;font-size: 14px;&quot;&gt;Detalle&lt;/font&gt;&lt;div&gt;&lt;br&gt;&lt;/div&gt;" style="shape=partialRectangle;html=1;whiteSpace=wrap;connectable=0;fillColor=none;top=0;left=0;bottom=0;right=0;overflow=hidden;pointerEvents=1;strokeColor=inherit;fontSize=16;fontFamily=Times New Roman;" vertex="1" parent="2W4oQ-HzInhPV2Ujpsob-2">
          <mxGeometry width="66" height="26" as="geometry">
            <mxRectangle width="66" height="26" as="alternateBounds" />
          </mxGeometry>
        </mxCell>
        <mxCell id="2W4oQ-HzInhPV2Ujpsob-4" value="&lt;font style=&quot;font-size: 14px;&quot;&gt;Ciclo 01-2025&lt;/font&gt;" style="shape=partialRectangle;html=1;whiteSpace=wrap;connectable=0;fillColor=none;top=0;left=0;bottom=0;right=0;align=left;spacingLeft=6;overflow=hidden;strokeColor=inherit;fontSize=16;fontFamily=Times New Roman;" vertex="1" parent="2W4oQ-HzInhPV2Ujpsob-2">
          <mxGeometry x="66" width="339" height="26" as="geometry">
            <mxRectangle width="339" height="26" as="alternateBounds" />
          </mxGeometry>
        </mxCell>
        <mxCell id="2W4oQ-HzInhPV2Ujpsob-5" value="" style="shape=tableRow;horizontal=0;startSize=0;swimlaneHead=0;swimlaneBody=0;top=0;left=0;bottom=0;right=0;collapsible=0;dropTarget=0;fillColor=none;points=[[0,0.5],[1,0.5]];portConstraint=eastwest;strokeColor=inherit;fontSize=16;fontFamily=Times New Roman;" vertex="1" parent="2W4oQ-HzInhPV2Ujpsob-1">
          <mxGeometry y="56" width="405" height="26" as="geometry" />
        </mxCell>
        <mxCell id="2W4oQ-HzInhPV2Ujpsob-6" value="&lt;font style=&quot;font-size: 14px;&quot;&gt;Encargado&lt;/font&gt;" style="shape=partialRectangle;html=1;whiteSpace=wrap;connectable=0;fillColor=none;top=0;left=0;bottom=0;right=0;overflow=hidden;strokeColor=inherit;fontSize=16;fontFamily=Times New Roman;" vertex="1" parent="2W4oQ-HzInhPV2Ujpsob-5">
          <mxGeometry width="66" height="26" as="geometry">
            <mxRectangle width="66" height="26" as="alternateBounds" />
          </mxGeometry>
        </mxCell>
        <mxCell id="2W4oQ-HzInhPV2Ujpsob-7" value="&lt;div&gt;&lt;span style=&quot;font-size: 14px;&quot;&gt;David Segura&lt;/span&gt;&lt;/div&gt;" style="shape=partialRectangle;html=1;whiteSpace=wrap;connectable=0;fillColor=none;top=0;left=0;bottom=0;right=0;align=left;spacingLeft=6;overflow=hidden;strokeColor=inherit;fontSize=16;fontFamily=Times New Roman;" vertex="1" parent="2W4oQ-HzInhPV2Ujpsob-5">
          <mxGeometry x="66" width="339" height="26" as="geometry">
            <mxRectangle width="339" height="26" as="alternateBounds" />
          </mxGeometry>
        </mxCell>
        <mxCell id="2W4oQ-HzInhPV2Ujpsob-8" value="" style="shape=tableRow;horizontal=0;startSize=0;swimlaneHead=0;swimlaneBody=0;top=0;left=0;bottom=0;right=0;collapsible=0;dropTarget=0;fillColor=none;points=[[0,0.5],[1,0.5]];portConstraint=eastwest;strokeColor=inherit;fontSize=16;fontFamily=Times New Roman;" vertex="1" parent="2W4oQ-HzInhPV2Ujpsob-1">
          <mxGeometry y="82" width="405" height="20" as="geometry" />
        </mxCell>
        <mxCell id="2W4oQ-HzInhPV2Ujpsob-9" value="" style="shape=partialRectangle;html=1;whiteSpace=wrap;connectable=0;fillColor=none;top=0;left=0;bottom=0;right=0;overflow=hidden;strokeColor=inherit;fontSize=16;fontFamily=Times New Roman;" vertex="1" parent="2W4oQ-HzInhPV2Ujpsob-8">
          <mxGeometry width="66" height="20" as="geometry">
            <mxRectangle width="66" height="20" as="alternateBounds" />
          </mxGeometry>
        </mxCell>
        <mxCell id="2W4oQ-HzInhPV2Ujpsob-10" value="" style="shape=partialRectangle;html=1;whiteSpace=wrap;connectable=0;fillColor=none;top=0;left=0;bottom=0;right=0;align=left;spacingLeft=6;overflow=hidden;strokeColor=inherit;fontSize=16;fontFamily=Times New Roman;" vertex="1" parent="2W4oQ-HzInhPV2Ujpsob-8">
          <mxGeometry x="66" width="339" height="20" as="geometry">
            <mxRectangle width="339" height="20" as="alternateBounds" />
          </mxGeometry>
        </mxCell>
        <mxCell id="2W4oQ-HzInhPV2Ujpsob-13" value="" style="edgeStyle=orthogonalEdgeStyle;rounded=0;orthogonalLoop=1;jettySize=auto;html=1;" edge="1" parent="1" source="2W4oQ-HzInhPV2Ujpsob-11" target="2W4oQ-HzInhPV2Ujpsob-12">
          <mxGeometry relative="1" as="geometry" />
        </mxCell>
        <mxCell id="2W4oQ-HzInhPV2Ujpsob-11" value="Agentar citas para toma de videos" style="rounded=0;whiteSpace=wrap;html=1;fillColor=#dae8fc;strokeColor=#6c8ebf;fontFamily=Times New Roman;fontSize=14;" vertex="1" parent="1">
          <mxGeometry x="342" y="213" width="144" height="50" as="geometry" />
        </mxCell>
        <mxCell id="2W4oQ-HzInhPV2Ujpsob-15" value="" style="edgeStyle=orthogonalEdgeStyle;rounded=0;orthogonalLoop=1;jettySize=auto;html=1;" edge="1" parent="1" source="2W4oQ-HzInhPV2Ujpsob-12" target="2W4oQ-HzInhPV2Ujpsob-14">
          <mxGeometry relative="1" as="geometry" />
        </mxCell>
        <mxCell id="2W4oQ-HzInhPV2Ujpsob-12" value="El docente hace la solicitud para toma de videos a través de correo electrónico, llamada telefónica. portal educativo" style="whiteSpace=wrap;html=1;fontSize=14;fontFamily=Times New Roman;rounded=0;" vertex="1" parent="1">
          <mxGeometry x="295" y="295" width="238" height="60" as="geometry" />
        </mxCell>
        <mxCell id="2W4oQ-HzInhPV2Ujpsob-17" value="" style="edgeStyle=orthogonalEdgeStyle;rounded=0;orthogonalLoop=1;jettySize=auto;html=1;" edge="1" parent="1" source="2W4oQ-HzInhPV2Ujpsob-14" target="2W4oQ-HzInhPV2Ujpsob-16">
          <mxGeometry relative="1" as="geometry" />
        </mxCell>
        <mxCell id="2W4oQ-HzInhPV2Ujpsob-14" value="El área de diseño recibe notificación por medio de correo electronónico para validar la solictud desde el portal empresarial: Registro académico/Educación Virtual/Solictud de video/Solicitudes pendientes de aprobar" style="whiteSpace=wrap;html=1;fontSize=14;fontFamily=Times New Roman;rounded=0;" vertex="1" parent="1">
          <mxGeometry x="240.88" y="387" width="346.25" height="71" as="geometry" />
        </mxCell>
        <mxCell id="2W4oQ-HzInhPV2Ujpsob-22" value="" style="edgeStyle=orthogonalEdgeStyle;rounded=0;orthogonalLoop=1;jettySize=auto;html=1;" edge="1" parent="1" source="2W4oQ-HzInhPV2Ujpsob-16" target="2W4oQ-HzInhPV2Ujpsob-21">
          <mxGeometry relative="1" as="geometry" />
        </mxCell>
        <mxCell id="2W4oQ-HzInhPV2Ujpsob-16" value="El área de diseño verifica la agenda actual con respecto a la solicitud que se ha recibido para aceptar o rechazar" style="whiteSpace=wrap;html=1;fontSize=14;fontFamily=Times New Roman;rounded=0;" vertex="1" parent="1">
          <mxGeometry x="307" y="490" width="214" height="60" as="geometry" />
        </mxCell>
        <mxCell id="2W4oQ-HzInhPV2Ujpsob-24" value="" style="edgeStyle=orthogonalEdgeStyle;rounded=0;orthogonalLoop=1;jettySize=auto;html=1;" edge="1" parent="1" source="2W4oQ-HzInhPV2Ujpsob-21" target="2W4oQ-HzInhPV2Ujpsob-23">
          <mxGeometry relative="1" as="geometry" />
        </mxCell>
        <mxCell id="2W4oQ-HzInhPV2Ujpsob-38" value="" style="edgeStyle=orthogonalEdgeStyle;rounded=0;orthogonalLoop=1;jettySize=auto;html=1;" edge="1" parent="1" source="2W4oQ-HzInhPV2Ujpsob-21" target="2W4oQ-HzInhPV2Ujpsob-37">
          <mxGeometry relative="1" as="geometry" />
        </mxCell>
        <mxCell id="2W4oQ-HzInhPV2Ujpsob-21" value="¿Aprobar?" style="rhombus;whiteSpace=wrap;html=1;fontSize=14;fontFamily=Times New Roman;rounded=0;" vertex="1" parent="1">
          <mxGeometry x="349" y="585" width="130" height="69" as="geometry" />
        </mxCell>
        <mxCell id="2W4oQ-HzInhPV2Ujpsob-27" value="" style="edgeStyle=orthogonalEdgeStyle;rounded=0;orthogonalLoop=1;jettySize=auto;html=1;" edge="1" parent="1" source="2W4oQ-HzInhPV2Ujpsob-23" target="2W4oQ-HzInhPV2Ujpsob-26">
          <mxGeometry relative="1" as="geometry" />
        </mxCell>
        <mxCell id="2W4oQ-HzInhPV2Ujpsob-23" value="Se agrega a la agenda" style="whiteSpace=wrap;html=1;fontSize=14;fontFamily=Times New Roman;rounded=0;" vertex="1" parent="1">
          <mxGeometry x="513" y="659" width="84" height="37" as="geometry" />
        </mxCell>
        <mxCell id="2W4oQ-HzInhPV2Ujpsob-25" value="SI" style="text;html=1;align=center;verticalAlign=middle;resizable=0;points=[];autosize=1;strokeColor=none;fillColor=none;" vertex="1" parent="1">
          <mxGeometry x="465" y="621" width="29" height="26" as="geometry" />
        </mxCell>
        <mxCell id="2W4oQ-HzInhPV2Ujpsob-31" value="" style="edgeStyle=orthogonalEdgeStyle;rounded=0;orthogonalLoop=1;jettySize=auto;html=1;" edge="1" parent="1" source="2W4oQ-HzInhPV2Ujpsob-26" target="2W4oQ-HzInhPV2Ujpsob-30">
          <mxGeometry relative="1" as="geometry" />
        </mxCell>
        <mxCell id="2W4oQ-HzInhPV2Ujpsob-35" value="" style="edgeStyle=orthogonalEdgeStyle;rounded=0;orthogonalLoop=1;jettySize=auto;html=1;" edge="1" parent="1" source="2W4oQ-HzInhPV2Ujpsob-26" target="2W4oQ-HzInhPV2Ujpsob-34">
          <mxGeometry relative="1" as="geometry" />
        </mxCell>
        <mxCell id="2W4oQ-HzInhPV2Ujpsob-26" value="Se notifica por vía correo a los encargados de cada sala sobre los detalles de la grabación" style="whiteSpace=wrap;html=1;fontSize=14;fontFamily=Times New Roman;rounded=0;" vertex="1" parent="1">
          <mxGeometry x="465.87" y="727" width="178.25" height="64" as="geometry" />
        </mxCell>
        <mxCell id="2W4oQ-HzInhPV2Ujpsob-30" value="Aplica para pregrado, maestría, postgrado, cursos, solicitud externa" style="whiteSpace=wrap;html=1;fontSize=14;fontFamily=Times New Roman;rounded=0;" vertex="1" parent="1">
          <mxGeometry x="676" y="727" width="132" height="64" as="geometry" />
        </mxCell>
        <mxCell id="2W4oQ-HzInhPV2Ujpsob-34" value="Se asigna el personal correspondiente para la toma del video" style="whiteSpace=wrap;html=1;fontSize=14;fontFamily=Times New Roman;rounded=0;" vertex="1" parent="1">
          <mxGeometry x="488" y="822" width="134" height="60" as="geometry" />
        </mxCell>
        <mxCell id="2W4oQ-HzInhPV2Ujpsob-40" style="edgeStyle=orthogonalEdgeStyle;rounded=0;orthogonalLoop=1;jettySize=auto;html=1;exitX=0;exitY=0.5;exitDx=0;exitDy=0;entryX=0;entryY=0.5;entryDx=0;entryDy=0;" edge="1" parent="1" source="2W4oQ-HzInhPV2Ujpsob-37" target="2W4oQ-HzInhPV2Ujpsob-12">
          <mxGeometry relative="1" as="geometry" />
        </mxCell>
        <mxCell id="2W4oQ-HzInhPV2Ujpsob-37" value="Se notifica al docente que realice nuevamente la solicitud" style="whiteSpace=wrap;html=1;fontSize=14;fontFamily=Times New Roman;rounded=0;" vertex="1" parent="1">
          <mxGeometry x="189" y="659" width="142" height="50" as="geometry" />
        </mxCell>
        <mxCell id="2W4oQ-HzInhPV2Ujpsob-39" value="NO" style="text;html=1;align=center;verticalAlign=middle;resizable=0;points=[];autosize=1;strokeColor=none;fillColor=none;" vertex="1" parent="1">
          <mxGeometry x="328" y="621" width="36" height="26" as="geometry" />
        </mxCell>
      </root>
    </mxGraphModel>
  </diagram>
</mxfile>
